<svg viewBox="0 0 32 32" xmlns="http://www.w3.org/2000/svg"><path d="m22.625 3.03125c-.320312.03125-.648437.117188-.96875.25v-.03125c-.015625.003906-.046875.027344-.0625.03125-2.433594.855469-7.09375 3-11.3125 7.21875-4.25 4.25-6.300781 8.996094-7.21875 11.34375v.03125c-.40625 1.214844-.117187 2.53125.6875 3.46875l.03125.03125v.03125l3 2.96875.125.125c.828125.828125 2.265625.828125 3.09375 0l4.09375-4.09375c.828125-.828125.828125-2.296875 0-3.125l-1.96875-1.96875c.34375-.714844 1.234375-2.472656 2.8125-4.125 1.566406-1.640625 3.363281-2.476562 4.0625-2.78125l2.0625 2.0625.09375.0625c.46875.3125 1.003906.488281 1.5625.46875.523438-.019531 1.066406-.277344 1.46875-.71875l.03125.03125.0625-.09375 4.03125-4c.828125-.828125.828125-2.296875 0-3.125l-3.09375-3.09375c-.4375-.4375-1.027344-.765625-1.65625-.90625-.304687-.066406-.617187-.09375-.9375-.0625zm.15625 2c.378906-.027344.757813.132813 1 .375l3.125 3.09375c.171875.171875.171875.109375 0 .28125l-4.1875 4.1875c.003906-.003906 0 .027344-.09375.03125-.078125.003906-.195312-.0625-.3125-.125h-.0625l-2.34375-2.375-.46875-.46875-.59375.21875s-3.074219 1.148438-5.375 3.5625c-2.261719 2.367188-3.5 5.28125-3.5 5.28125l-.25.625.46875.5 2.5 2.5c.171875.171875.171875.109375 0 .28125l-4.09375 4.09375c-.171875.171875-.109375.171875-.28125 0l-3.0625-3.03125c-.007812-.007812.007813-.023437 0-.03125l-.03125-.03125c-.347656-.433594-.453125-.894531-.28125-1.4375.003906-.011719-.003906-.019531 0-.03125.886719-2.257812 2.839844-6.683594 6.78125-10.625 3.957031-3.957031 8.445313-5.992187 10.625-6.75l.03125-.03125h.03125c.121094-.054687.25-.085937.375-.09375z"/></svg>